<svg width="264" height="24" viewBox="0 0 264 24" fill="none" xmlns="http://www.w3.org/2000/svg">
<rect width="24" height="24"  style="mix-blend-mode:multiply"/>
<path d="M19.65 3H4.35C3.6 3 3 3.6 3 4.275V19.65C3 20.325 3.6 20.925 4.35 20.925H19.65C20.4 20.925 21 20.325 21 19.65V4.275C21 3.6 20.4 3 19.65 3ZM8.325 18.3H5.7V9.75H8.325V18.3ZM7.05 8.55C6.225 8.55 5.475 7.875 5.475 6.975C5.475 6.075 6.15 5.4 7.05 5.4C7.875 5.4 8.625 6.075 8.625 6.975C8.625 7.875 7.875 8.55 7.05 8.55ZM18.375 18.225H15.75V14.025C15.75 13.05 15.75 11.7 14.325 11.7C12.9 11.7 12.75 12.825 12.75 13.875V18.15H10.125V9.75H12.6V10.875H12.675C13.05 10.2 13.95 9.45 15.225 9.45C17.925 9.45 18.45 11.25 18.45 13.575V18.225H18.375Z" fill="white"/>
<rect width="24" height="24" transform="translate(48)"  style="mix-blend-mode:multiply"/>
<path d="M68.0025 3H51.9975C51.7336 3.00196 51.481 3.10769 51.2943 3.29433C51.1077 3.48097 51.002 3.73355 51 3.9975V20.0025C51.002 20.2664 51.1077 20.519 51.2943 20.7057C51.481 20.8923 51.7336 20.998 51.9975 21H60.615V14.04H58.275V11.3175H60.615V9.315C60.615 6.99 62.0325 5.7225 64.1175 5.7225C64.815 5.7225 65.5125 5.7225 66.21 5.8275V8.25H64.7775C63.645 8.25 63.4275 8.79 63.4275 9.5775V11.31H66.1275L65.775 14.0325H63.4275V21H68.0025C68.2664 20.998 68.519 20.8923 68.7057 20.7057C68.8923 20.519 68.998 20.2664 69 20.0025V3.9975C68.998 3.73355 68.8923 3.48097 68.7057 3.29433C68.519 3.10769 68.2664 3.00196 68.0025 3Z" fill="white"/>
<rect width="24" height="24" transform="translate(96)" style="mix-blend-mode:multiply"/>
<path d="M112.804 8.2758C113.401 8.2758 113.884 7.79227 113.884 7.1958C113.884 6.59933 113.401 6.1158 112.804 6.1158C112.208 6.1158 111.724 6.59933 111.724 7.1958C111.724 7.79227 112.208 8.2758 112.804 8.2758Z" fill="white"/>
<path d="M108 7.37835C107.086 7.37835 106.192 7.64941 105.432 8.15724C104.672 8.66507 104.08 9.38688 103.73 10.2314C103.38 11.0759 103.289 12.0051 103.467 12.9016C103.645 13.7982 104.086 14.6217 104.732 15.268C105.378 15.9144 106.202 16.3545 107.098 16.5328C107.995 16.7112 108.924 16.6196 109.769 16.2698C110.613 15.92 111.335 15.3277 111.843 14.5677C112.351 13.8076 112.622 12.9141 112.622 12C112.622 10.7743 112.135 9.59873 111.268 8.732C110.401 7.86527 109.226 7.37835 108 7.37835ZM108 15C107.407 15 106.827 14.8241 106.333 14.4944C105.84 14.1648 105.455 13.6962 105.228 13.1481C105.001 12.5999 104.942 11.9967 105.058 11.4147C105.173 10.8328 105.459 10.2982 105.879 9.87868C106.298 9.45912 106.833 9.1734 107.415 9.05764C107.997 8.94189 108.6 9.0013 109.148 9.22836C109.696 9.45542 110.165 9.83994 110.494 10.3333C110.824 10.8266 111 11.4067 111 12C111 12.7956 110.684 13.5587 110.121 14.1213C109.559 14.6839 108.796 15 108 15Z" fill="white"/>
<path d="M108 4.62165C110.403 4.62165 110.688 4.6308 111.637 4.67415C112.207 4.68094 112.773 4.78577 113.308 4.98405C113.696 5.13381 114.049 5.36316 114.343 5.65732C114.637 5.95149 114.866 6.30398 115.016 6.6921C115.214 7.22731 115.319 7.79261 115.326 8.36333C115.369 9.3123 115.378 9.597 115.378 12.0001C115.378 14.4031 115.369 14.6878 115.326 15.6368C115.319 16.2075 115.214 16.7728 115.016 17.3081C114.866 17.6962 114.637 18.0487 114.343 18.3428C114.049 18.637 113.696 18.8663 113.308 19.0161C112.773 19.2144 112.207 19.3192 111.637 19.326C110.688 19.3693 110.403 19.3785 108 19.3785C105.597 19.3785 105.312 19.3694 104.363 19.326C103.793 19.3192 103.227 19.2144 102.692 19.0161C102.304 18.8663 101.951 18.637 101.657 18.3428C101.363 18.0487 101.134 17.6962 100.984 17.3081C100.786 16.7728 100.681 16.2075 100.674 15.6368C100.631 14.6878 100.622 14.4031 100.622 12.0001C100.622 9.597 100.631 9.3123 100.674 8.36333C100.681 7.79261 100.786 7.22731 100.984 6.6921C101.134 6.30396 101.363 5.95146 101.657 5.65728C101.951 5.3631 102.304 5.13375 102.692 4.98397C103.227 4.78569 103.793 4.68087 104.363 4.67408C105.312 4.6308 105.597 4.62165 108 4.62165ZM108 3C105.556 3 105.249 3.01035 104.289 3.05415C103.543 3.06914 102.804 3.21059 102.105 3.4725C101.507 3.70374 100.964 4.05735 100.511 4.51068C100.057 4.96401 99.7037 5.50705 99.4725 6.105C99.2106 6.80434 99.0691 7.54304 99.0541 8.28968C99.0103 9.24923 99 9.55575 99 12C99 14.4443 99.0103 14.7508 99.0541 15.7107C99.0691 16.4573 99.2106 17.196 99.4725 17.8954C99.7037 18.4933 100.057 19.0364 100.511 19.4897C100.964 19.943 101.507 20.2966 102.105 20.5279C102.804 20.7898 103.543 20.9313 104.29 20.9462C105.249 20.9897 105.556 21 108 21C110.444 21 110.751 20.9896 111.711 20.9459C112.457 20.9309 113.196 20.7894 113.895 20.5275C114.493 20.2963 115.036 19.9426 115.49 19.4893C115.943 19.036 116.297 18.493 116.528 17.895C116.79 17.1957 116.931 16.457 116.946 15.7103C116.99 14.7508 117 14.4443 117 12C117 9.55575 116.99 9.24922 116.946 8.2893C116.931 7.54279 116.789 6.80422 116.528 6.105C116.296 5.50712 115.943 4.96415 115.489 4.51089C115.036 4.05763 114.493 3.70407 113.895 3.47287C113.196 3.21093 112.457 3.06948 111.71 3.05453C110.751 3.01035 110.444 3 108 3Z" fill="white"/>
<rect width="24" height="24" transform="translate(144)" style="mix-blend-mode:multiply"/>
<path d="M164.932 13.4102C165.008 12.944 165.045 12.4724 165.045 12.0002C165.045 9.60129 164.092 7.30066 162.395 5.60439C160.699 3.90813 158.399 2.95517 156 2.95517C155.527 2.95444 155.056 2.99207 154.59 3.06768C153.544 2.44143 152.32 2.18241 151.11 2.33174C149.901 2.48107 148.776 3.0302 147.914 3.89193C147.052 4.75365 146.503 5.87857 146.354 7.08805C146.204 8.29753 146.463 9.52223 147.09 10.5677C147.005 11.0406 146.96 11.5198 146.955 12.0002C146.955 14.3991 147.908 16.6997 149.604 18.396C151.3 20.0922 153.601 21.0452 156 21.0452C156.472 21.0459 156.943 21.0083 157.41 20.9327C158.455 21.5589 159.68 21.8179 160.889 21.6686C162.099 21.5193 163.224 20.9701 164.085 20.1084C164.947 19.2467 165.496 18.1218 165.646 16.9123C165.795 15.7028 165.536 14.4781 164.91 13.4327L164.932 13.4102ZM160.297 16.1102C159.874 16.6955 159.29 17.146 158.617 17.4077C157.786 17.7337 156.899 17.8917 156.007 17.8727C154.969 17.9161 153.936 17.7023 153 17.2502C152.454 16.9569 151.986 16.5378 151.635 16.0277C151.313 15.5919 151.13 15.0691 151.11 14.5277C151.109 14.3872 151.137 14.2481 151.193 14.119C151.248 13.9899 151.33 13.8737 151.432 13.7777C151.659 13.5843 151.952 13.4851 152.25 13.5002C152.499 13.4955 152.741 13.5807 152.932 13.7402C153.141 13.936 153.303 14.1772 153.405 14.4452C153.535 14.7584 153.701 15.0554 153.9 15.3302C154.098 15.5839 154.355 15.7848 154.65 15.9152C155.049 16.0867 155.483 16.1661 155.917 16.1477C156.536 16.1777 157.149 16.0152 157.672 15.6827C157.873 15.5651 158.04 15.3977 158.157 15.1966C158.274 14.9956 158.337 14.7677 158.34 14.5352C158.346 14.3723 158.318 14.2099 158.257 14.0587C158.197 13.9075 158.104 13.7708 157.987 13.6577C157.72 13.4116 157.399 13.2318 157.05 13.1327C156.66 13.0052 156.142 12.8777 155.49 12.7352C154.74 12.5607 154.009 12.3146 153.307 12.0002C152.755 11.7737 152.267 11.4128 151.89 10.9502C151.531 10.4734 151.346 9.88877 151.365 9.29268C151.359 8.68668 151.554 8.0958 151.92 7.61267C152.338 7.09349 152.894 6.7034 153.525 6.48767C154.322 6.22284 155.16 6.10096 156 6.12768C156.657 6.11605 157.312 6.20457 157.942 6.39018C158.437 6.53708 158.902 6.77071 159.315 7.08017C159.64 7.3243 159.91 7.63334 160.11 7.98767C160.272 8.2739 160.359 8.59626 160.365 8.92518C160.364 9.06539 160.335 9.20399 160.279 9.3328C160.224 9.46161 160.143 9.57803 160.042 9.67518C159.94 9.78577 159.816 9.87364 159.678 9.93308C159.539 9.99252 159.39 10.0222 159.24 10.0202C158.998 10.0389 158.759 9.9637 158.572 9.81018C158.375 9.62055 158.211 9.40017 158.085 9.15768C157.899 8.77542 157.63 8.43969 157.297 8.17517C156.861 7.90304 156.347 7.78183 155.835 7.83017C155.309 7.80801 154.788 7.93824 154.335 8.20517C154.17 8.29312 154.031 8.42227 153.931 8.58C153.831 8.73774 153.774 8.91869 153.765 9.10518C153.759 9.30894 153.825 9.50822 153.952 9.66768C154.102 9.84099 154.286 9.98144 154.492 10.0802C154.712 10.194 154.943 10.2845 155.182 10.3502C155.422 10.4177 155.812 10.5152 156.36 10.6427C157.05 10.7927 157.665 10.9577 158.227 11.1377C158.73 11.291 159.21 11.5131 159.652 11.7977C160.038 12.0417 160.355 12.3798 160.575 12.7802C160.798 13.2369 160.901 13.7427 160.875 14.2502C160.881 14.9153 160.679 15.5658 160.297 16.1102Z" fill="white"/>
<rect width="24" height="24" transform="translate(192)"  style="mix-blend-mode:multiply"/>
<path d="M200.94 18.705C202.207 18.713 203.463 18.4693 204.635 17.9882C205.807 17.507 206.871 16.798 207.767 15.9022C208.663 15.0064 209.372 13.9416 209.853 12.7696C210.334 11.5977 210.578 10.3418 210.57 9.07499C210.57 8.92499 210.57 8.78249 210.57 8.63249C211.227 8.15136 211.795 7.56012 212.25 6.88499C211.632 7.15544 210.977 7.3348 210.307 7.41749C211.018 6.99432 211.551 6.32824 211.807 5.54249C211.146 5.93957 210.42 6.21871 209.662 6.36749C209.152 5.82401 208.478 5.46378 207.742 5.34253C207.007 5.22128 206.252 5.34576 205.594 5.69673C204.937 6.04769 204.413 6.60557 204.105 7.28405C203.796 7.96252 203.72 8.72376 203.888 9.44999C202.542 9.38395 201.226 9.03525 200.024 8.42662C198.822 7.81798 197.762 6.96305 196.913 5.91749C196.484 6.66087 196.354 7.53923 196.549 8.37473C196.744 9.21023 197.249 9.94043 197.962 10.4175C197.436 10.3972 196.923 10.2533 196.462 9.99749V10.035C196.458 10.8119 196.72 11.5669 197.204 12.1742C197.689 12.7815 198.367 13.2044 199.125 13.3725C198.636 13.5041 198.123 13.5246 197.625 13.4325C197.845 14.095 198.264 14.6734 198.825 15.0883C199.386 15.5032 200.062 15.7344 200.76 15.75C199.567 16.7104 198.084 17.239 196.553 17.25C196.284 17.2422 196.016 17.2197 195.75 17.1825C197.3 18.1702 199.102 18.6909 200.94 18.6825" fill="white"/>
<rect width="24" height="24" transform="translate(240)"  style="mix-blend-mode:multiply"/>
<path d="M252 1.5C249.565 1.51658 247.213 2.37849 245.344 3.93828C243.475 5.49807 242.206 7.65882 241.754 10.0509C241.302 12.443 241.695 14.9177 242.867 17.0518C244.038 19.1858 245.914 20.8466 248.175 21.75C248.023 20.7558 248.023 19.7442 248.175 18.75L249.412 13.5C249.216 13.0245 249.119 12.5142 249.127 12C249.127 10.545 249.975 9.45 251.025 9.45C251.215 9.44714 251.404 9.48543 251.578 9.56224C251.752 9.63906 251.907 9.75258 252.033 9.89504C252.159 10.0375 252.253 10.2055 252.308 10.3876C252.363 10.5697 252.378 10.7615 252.352 10.95C252.352 11.85 251.782 13.2 251.482 14.445C251.418 14.6772 251.41 14.9215 251.46 15.1573C251.51 15.3931 251.616 15.6133 251.769 15.7995C251.922 15.9857 252.117 16.1322 252.339 16.2267C252.561 16.3212 252.802 16.361 253.042 16.3425C254.902 16.3425 256.342 14.37 256.342 11.535C256.361 10.9589 256.259 10.3853 256.044 9.85061C255.829 9.31598 255.504 8.8321 255.091 8.42986C254.679 8.02762 254.186 7.71584 253.646 7.51442C253.106 7.31299 252.53 7.22634 251.955 7.26C251.34 7.23361 250.727 7.33216 250.152 7.54966C249.577 7.76717 249.052 8.09912 248.609 8.52542C248.166 8.95172 247.814 9.46351 247.574 10.0298C247.334 10.5961 247.212 11.2051 247.215 11.82C247.206 12.6766 247.469 13.5139 247.965 14.2125C248.001 14.2526 248.027 14.3009 248.04 14.3532C248.053 14.4055 248.053 14.4602 248.04 14.5125C247.957 14.8425 247.777 15.5625 247.747 15.705C247.717 15.8475 247.59 15.9375 247.395 15.8475C246.082 15.2325 245.265 13.32 245.265 11.775C245.265 8.4675 247.672 5.4225 252.202 5.4225C255.84 5.4225 258.675 8.0175 258.675 11.49C258.675 15.105 256.425 18.015 253.222 18.015C252.753 18.0313 252.287 17.9301 251.866 17.7206C251.446 17.511 251.084 17.1997 250.815 16.815L250.162 19.3125C249.85 20.2831 249.411 21.2085 248.857 22.065C249.877 22.3664 250.936 22.513 252 22.5C254.785 22.5 257.455 21.3938 259.424 19.4246C261.394 17.4555 262.5 14.7848 262.5 12C262.5 9.21523 261.394 6.54451 259.424 4.57538C257.455 2.60625 254.785 1.5 252 1.5Z" fill="white"/>
</svg>
