<svg width="24" height="24" viewBox="0 0 24 24" fill="none" xmlns="http://www.w3.org/2000/svg">
<rect width="24" height="24" style="mix-blend-mode:multiply"/>
<path d="M20.9321 13.4097C21.0078 12.9435 21.0454 12.472 21.0446 11.9997C21.0446 9.6008 20.0917 7.30017 18.3954 5.60391C16.6992 3.90764 14.3985 2.95469 11.9996 2.95469C11.5274 2.95395 11.0558 2.99158 10.5896 3.06719C9.5442 2.44094 8.3195 2.18192 7.11002 2.33125C5.90054 2.48059 4.77563 3.02972 3.9139 3.89144C3.05218 4.75317 2.50305 5.87808 2.35371 7.08756C2.20438 8.29704 2.4634 9.52174 3.08965 10.5672C3.00527 11.0402 2.96012 11.5193 2.95465 11.9997C2.95465 14.3986 3.9076 16.6992 5.60387 18.3955C7.30013 20.0917 9.60076 21.0447 11.9996 21.0447C12.4719 21.0454 12.9435 21.0078 13.4096 20.9322C14.4551 21.5584 15.6798 21.8175 16.8893 21.6681C18.0987 21.5188 19.2237 20.9697 20.0854 20.1079C20.9471 19.2462 21.4962 18.1213 21.6456 16.9118C21.7949 15.7023 21.5359 14.4776 20.9096 13.4322L20.9321 13.4097ZM16.2971 16.1097C15.8738 16.695 15.2904 17.1455 14.6171 17.4072C13.7864 17.7332 12.8993 17.8912 12.0071 17.8722C10.9687 17.9157 9.93554 17.7018 8.99965 17.2497C8.45401 16.9564 7.9861 16.5373 7.63465 16.0272C7.31271 15.5914 7.12974 15.0686 7.10965 14.5272C7.10886 14.3867 7.13709 14.2476 7.19259 14.1185C7.24808 13.9895 7.32964 13.8733 7.43215 13.7772C7.65931 13.5839 7.95174 13.4846 8.24965 13.4997C8.49861 13.495 8.74092 13.5802 8.93215 13.7397C9.14146 13.9355 9.3031 14.1767 9.40465 14.4447C9.53477 14.7579 9.70088 15.0549 9.89965 15.3297C10.0977 15.5834 10.3554 15.7843 10.6496 15.9147C11.0494 16.0862 11.4826 16.1656 11.9171 16.1472C12.5361 16.1772 13.1492 16.0147 13.6721 15.6822C13.8728 15.5646 14.0397 15.3972 14.1567 15.1962C14.2736 14.9951 14.3367 14.7673 14.3396 14.5347C14.3461 14.3718 14.3181 14.2094 14.2573 14.0582C14.1966 13.907 14.1045 13.7703 13.9871 13.6572C13.7201 13.4112 13.399 13.2313 13.0496 13.1322C12.6596 13.0047 12.1421 12.8772 11.4896 12.7347C10.7403 12.5602 10.0094 12.3141 9.30715 11.9997C8.75457 11.7732 8.26732 11.4123 7.88965 10.9497C7.53144 10.4729 7.34628 9.88828 7.36465 9.29219C7.35859 8.68619 7.55379 8.09532 7.91965 7.61219C8.33754 7.093 8.89405 6.70292 9.52465 6.48719C10.322 6.22235 11.1599 6.10048 11.9996 6.12719C12.6567 6.11557 13.3117 6.20408 13.9421 6.38969C14.4369 6.53659 14.9016 6.77022 15.3146 7.07969C15.6397 7.32382 15.9104 7.63285 16.1096 7.98719C16.2718 8.27342 16.3595 8.59577 16.3646 8.92469C16.3637 9.0649 16.3347 9.2035 16.2793 9.33231C16.2239 9.46113 16.1433 9.57754 16.0421 9.67469C15.9401 9.78528 15.8159 9.87315 15.6776 9.93259C15.5394 9.99203 15.3901 10.0217 15.2396 10.0197C14.9984 10.0385 14.7592 9.96321 14.5721 9.80969C14.3753 9.62006 14.2107 9.39968 14.0846 9.15719C13.8989 8.77493 13.6298 8.4392 13.2971 8.17469C12.8606 7.90255 12.3468 7.78134 11.8346 7.82969C11.309 7.80753 10.7881 7.93775 10.3346 8.20469C10.1699 8.29263 10.0309 8.42178 9.93096 8.57952C9.83106 8.73725 9.77376 8.9182 9.76465 9.10469C9.75871 9.30845 9.82514 9.50774 9.95215 9.66719C10.1017 9.84051 10.2856 9.98096 10.4921 10.0797C10.7121 10.1935 10.9434 10.284 11.1821 10.3497C11.4221 10.4172 11.8121 10.5147 12.3596 10.6422C13.0496 10.7922 13.6646 10.9572 14.2271 11.1372C14.7303 11.2905 15.2098 11.5126 15.6521 11.7972C16.038 12.0412 16.3554 12.3793 16.5746 12.7797C16.7975 13.2364 16.9008 13.7422 16.8746 14.2497C16.8814 14.9148 16.6794 15.5653 16.2971 16.1097Z" fill="white"/>
</svg>
